<?xml version="1.0" standalone="no"?>
<!DOCTYPE svg PUBLIC "-//W3C//DTD SVG 20010904//EN"
 "http://www.w3.org/TR/2001/REC-SVG-20010904/DTD/svg10.dtd">
<svg version="1.0" xmlns="http://www.w3.org/2000/svg"
 width="1000.000000pt" height="1000.000000pt" viewBox="0 0 1000.000000 1000.000000"
 preserveAspectRatio="xMidYMid meet">
<metadata>
Created by potrace 1.14, written by Peter Selinger 2001-2017
</metadata>
<g transform="translate(0.000000,1000.000000) scale(0.100000,-0.100000)"
fill="#000000" stroke="none">
<path d="M7416 6195 c-68 -36 -108 -128 -165 -380 -34 -152 -66 -305 -81 -390
-5 -33 -12 -71 -15 -85 -8 -41 -15 -91 -21 -160 -4 -55 -2 -72 18 -110 30 -58
72 -80 156 -80 73 0 152 25 215 69 54 37 57 37 57 10 0 -11 14 -34 30 -51 29
-29 34 -30 98 -26 69 4 154 38 198 79 l22 20 21 -34 c27 -44 90 -77 134 -70
35 5 106 43 127 68 12 14 14 13 24 -7 6 -12 27 -33 46 -46 28 -19 45 -23 81
-20 117 11 262 142 269 243 5 76 -9 74 -48 -7 -65 -137 -205 -220 -250 -148
-6 11 -13 37 -13 57 -2 57 52 286 85 364 6 13 -1 15 -46 11 -29 -2 -60 -10
-68 -18 -11 -9 -20 -10 -30 -3 -23 15 -111 8 -153 -13 -55 -27 -114 -84 -126
-121 -12 -40 -35 -150 -33 -159 3 -12 -88 -86 -132 -108 -99 -48 -148 -11
-124 95 6 22 12 51 14 65 7 37 11 57 30 147 22 106 10 123 -63 99 -26 -8 -26
-10 -53 -140 -23 -112 -42 -148 -108 -207 -58 -52 -119 -80 -177 -82 -73 -2
-95 37 -88 156 3 62 8 74 61 155 111 169 218 405 249 545 9 43 10 185 1 218
-11 38 -56 79 -87 79 -14 0 -39 -7 -55 -15z m68 -173 c-2 -126 -57 -301 -159
-507 -49 -100 -52 -99 -29 7 8 40 18 84 20 98 3 14 19 79 35 145 17 66 32 128
34 137 13 61 49 177 62 197 25 38 38 10 37 -77z m774 -607 c5 -5 -22 -146 -42
-223 -19 -72 -70 -130 -113 -132 -24 0 -53 39 -53 73 0 48 34 197 54 235 20
40 64 61 114 55 20 -2 38 -6 40 -8z"/>
<path d="M2010 5835 c0 -131 -250 -549 -529 -885 -51 -61 -62 -71 -72 -64 -4
2 -12 -3 -19 -11 -10 -12 -9 -15 6 -16 80 -2 164 -9 193 -14 20 -4 48 -9 63
-10 25 -4 108 -18 168 -30 171 -33 282 -48 385 -49 162 -3 258 27 289 91 9 19
15 38 12 40 -2 3 -44 -5 -93 -18 -142 -36 -302 -34 -623 7 -105 14 -201 22
-271 24 -10 0 25 42 86 103 223 226 492 604 519 732 7 32 -12 57 -74 98 -30
21 -40 21 -40 2z"/>
<path d="M4790 5826 c-126 -35 -241 -119 -284 -209 -41 -85 -23 -157 40 -157
18 0 23 7 29 39 8 51 56 149 89 183 102 107 308 124 404 35 36 -34 61 -90 71
-159 5 -35 7 -67 5 -73 -1 -5 -5 -33 -8 -60 -12 -113 -78 -241 -155 -303 -42
-33 -94 -62 -114 -62 -16 0 -90 140 -142 270 -21 52 -42 99 -46 104 -13 14
-74 -3 -122 -34 -81 -54 -102 -163 -51 -267 41 -84 133 -139 243 -146 35 -2
49 -9 76 -39 99 -109 216 -168 340 -171 139 -2 247 73 213 148 -11 25 -28 34
-28 15 0 -5 -10 -19 -22 -31 -95 -90 -274 -70 -386 44 l-43 44 56 21 c67 26
115 60 172 121 46 49 109 159 117 204 2 15 7 31 11 37 4 6 6 51 6 100 -1 162
-56 262 -178 322 -58 29 -77 32 -157 34 -50 1 -111 -4 -136 -10z m-120 -629
c35 -73 66 -136 69 -141 7 -16 -54 5 -94 32 -52 37 -86 95 -83 147 2 40 22 95
36 95 4 0 36 -60 72 -133z"/>
<path d="M2854 5762 c-33 -5 -56 -37 -60 -81 -3 -43 9 -59 46 -66 48 -9 89 31
90 86 0 47 -27 69 -76 61z"/>
<path d="M7708 5756 c-63 -32 -61 -136 3 -140 57 -5 99 42 90 99 -6 42 -51 62
-93 41z"/>
<path d="M6875 5499 l-7 -29 -31 17 c-18 9 -46 16 -64 15 -43 -2 -124 -44
-166 -85 -30 -30 -35 -46 -56 -153 -21 -108 -26 -122 -58 -155 -43 -46 -103
-74 -137 -65 -32 8 -54 50 -49 96 8 87 68 336 84 346 21 13 5 19 -43 16 -29
-2 -60 -10 -68 -17 -9 -8 -22 -10 -35 -5 -39 16 -101 10 -151 -15 -61 -31
-123 -92 -130 -130 -18 -101 -36 -170 -49 -188 -26 -37 -96 -86 -133 -93 -29
-6 -38 -3 -52 17 -19 24 -19 33 6 144 9 39 17 77 19 85 2 8 12 48 24 88 l20
73 -37 16 c-38 16 -63 9 -68 -18 -1 -7 -5 -27 -9 -44 -3 -16 -8 -41 -11 -55
-14 -73 -48 -179 -66 -210 -69 -114 -169 -103 -137 15 5 17 11 45 14 63 3 17
7 47 10 65 3 17 12 57 20 88 8 31 15 63 15 71 0 13 -58 38 -88 38 -9 0 -21
-43 -37 -135 -5 -30 -10 -57 -20 -105 -3 -14 -7 -43 -11 -65 -3 -22 -9 -54
-14 -72 -10 -40 5 -70 49 -100 59 -40 115 -29 178 35 l38 39 18 -37 c38 -81
148 -81 239 -1 l36 32 23 -32 c26 -37 91 -69 128 -62 38 6 112 45 124 65 9 14
15 11 46 -24 60 -66 136 -64 243 9 51 33 52 34 67 15 21 -26 61 -51 101 -62
30 -9 56 -3 121 24 15 6 16 2 8 -41 -66 -357 -200 -529 -417 -538 -103 -4
-203 40 -241 106 -19 33 -27 36 -35 12 -20 -66 -7 -143 31 -185 48 -53 168
-78 278 -57 147 28 278 137 357 299 45 91 101 252 113 322 3 18 14 69 24 113
10 44 22 98 27 120 4 22 8 42 9 45 1 5 26 118 29 135 2 6 8 36 15 68 7 32 10
64 8 71 -3 8 -26 21 -51 29 l-45 15 -6 -29z m-36 -78 c15 -9 20 -19 17 -37 -3
-13 -10 -52 -17 -87 -6 -34 -13 -71 -15 -82 -13 -84 -37 -126 -82 -149 -54
-27 -102 4 -102 64 0 51 27 186 46 231 27 62 97 89 153 60z m-598 -8 c12 -12
-37 -238 -61 -281 -42 -75 -109 -90 -135 -30 -10 26 -9 46 11 138 24 115 42
153 82 174 26 14 89 13 103 -1z"/>
<path d="M3935 5502 c-22 -2 -45 -10 -51 -18 -9 -11 -18 -12 -38 -4 -39 14
-91 12 -133 -5 -43 -18 -119 -78 -133 -105 -17 -31 -61 -263 -55 -287 8 -32
61 -81 100 -92 46 -12 93 1 148 43 l43 33 16 -28 c52 -89 191 -71 303 39 50
48 95 131 90 160 -2 9 -4 23 -4 30 -2 27 -19 9 -47 -49 -46 -96 -139 -179
-203 -179 -11 0 -30 10 -42 23 -29 31 -24 111 22 289 23 94 37 131 50 139 15
9 -19 15 -66 11z m-86 -88 c6 -6 -40 -224 -55 -262 -16 -38 -71 -92 -96 -92
-26 0 -58 40 -58 72 0 50 40 211 61 245 22 36 65 53 114 46 17 -3 32 -7 34 -9z"/>
<path d="M2808 5488 c-31 -11 -34 -19 -69 -196 -21 -108 -24 -114 -68 -161
-71 -76 -132 -99 -166 -64 -22 22 -17 70 29 247 20 76 33 142 31 146 -8 13
-73 32 -84 26 -5 -4 -12 -21 -16 -39 -38 -198 -70 -291 -114 -337 -42 -44 -78
-52 -103 -22 -14 15 -12 33 17 177 18 88 34 169 36 180 3 16 -5 23 -39 34 -26
8 -47 10 -53 4 -10 -10 -17 -43 -60 -293 -22 -128 -20 -140 35 -178 45 -31 94
-29 142 6 21 16 45 36 53 45 18 23 31 21 31 -2 0 -31 60 -71 106 -71 48 0 109
28 151 69 37 36 43 38 43 12 0 -33 43 -73 86 -80 50 -9 105 3 175 39 54 27 56
28 68 8 7 -11 33 -29 58 -40 54 -24 139 -21 192 7 37 18 101 81 102 98 0 7 2
21 5 32 6 31 -12 72 -43 101 -95 86 -113 108 -113 134 0 33 16 48 58 56 26 5
36 1 62 -25 18 -17 33 -31 36 -31 11 0 34 50 28 64 -9 25 -77 56 -121 56 -86
0 -173 -75 -173 -149 0 -31 9 -44 74 -106 89 -85 99 -121 51 -170 -41 -40
-107 -31 -147 19 -22 26 -22 31 -3 49 25 26 64 107 58 123 -9 23 -19 17 -57
-35 -39 -55 -123 -126 -173 -147 -73 -31 -124 -6 -117 57 5 40 51 266 63 306
13 45 -20 68 -71 51z"/>
<path d="M4436 4635 c-208 -53 -162 -350 54 -348 31 0 70 8 88 17 43 22 83 78
89 126 l6 41 -74 -3 c-66 -3 -74 -5 -74 -23 0 -16 8 -21 43 -23 48 -4 51 -10
19 -48 -45 -52 -156 -47 -202 8 -34 40 -41 74 -24 122 20 59 69 89 135 84 31
-3 63 -13 81 -26 29 -21 31 -21 47 -3 15 16 15 19 -1 33 -49 43 -122 59 -187
43z"/>
<path d="M3253 4621 c-87 -40 -125 -159 -77 -242 61 -104 205 -124 291 -40
148 143 -24 368 -214 282z m158 -54 c44 -30 61 -63 56 -113 -5 -50 -31 -88
-71 -105 -34 -15 -89 -13 -120 3 -26 14 -66 58 -67 76 -5 46 -4 60 9 87 32 72
126 97 193 52z"/>
<path d="M2927 4623 c-11 -24 1 -38 36 -41 30 -3 37 -7 38 -25 0 -12 0 -75 0
-139 l0 -118 25 0 24 0 0 140 0 140 40 0 c36 0 40 3 40 25 0 25 0 25 -99 25
-55 0 -102 -3 -104 -7z"/>
<path d="M3579 4626 c-2 -2 -3 -58 -2 -124 2 -160 20 -197 106 -213 32 -6 52
-3 83 10 60 27 71 58 72 207 l0 124 -24 0 c-24 0 -24 -1 -25 -112 0 -62 -2
-122 -4 -133 -8 -39 -63 -63 -108 -46 -42 16 -54 59 -52 184 2 104 1 107 -20
107 -12 0 -24 -2 -26 -4z"/>
<path d="M3907 4469 c1 -88 3 -162 5 -164 2 -2 12 -5 23 -7 18 -3 20 3 20 60
0 34 4 62 8 62 4 1 24 -23 44 -52 43 -64 58 -77 83 -71 17 5 15 12 -25 71 -43
63 -48 82 -21 82 23 0 55 45 58 82 4 63 -46 98 -139 98 l-58 0 2 -161z m129
101 c20 -17 18 -67 -3 -79 -10 -5 -31 -11 -48 -12 -29 -4 -30 -3 -30 46 -1 28
1 54 3 58 5 11 60 1 78 -13z"/>
<path d="M4725 4501 c2 -139 9 -164 60 -197 32 -21 107 -22 139 0 52 33 59 58
61 197 l2 129 -26 0 -26 0 1 -121 c1 -110 0 -123 -20 -145 -11 -13 -35 -27
-53 -30 -27 -5 -37 -1 -62 24 -29 29 -30 32 -30 128 1 150 2 144 -24 144 -23
0 -23 0 -22 -129z"/>
<path d="M5049 4613 c0 -17 0 -239 1 -295 0 -19 4 -25 18 -23 9 2 19 4 22 4 3
1 5 75 5 166 0 165 0 165 -22 165 -15 0 -23 -6 -24 -17z"/>
<path d="M5165 4468 l0 -162 30 -6 c36 -6 47 -6 106 3 85 14 146 96 134 180
-15 99 -79 146 -200 147 l-70 0 0 -162z m155 101 c39 -15 65 -58 64 -104 -2
-74 -47 -114 -130 -118 l-39 -2 -2 110 c-1 61 0 115 2 121 4 13 65 9 105 -7z"/>
<path d="M5482 4465 l0 -165 36 -1 c44 -1 110 -1 135 0 11 1 17 9 17 25 0 22
-3 23 -59 21 -32 -1 -64 1 -70 5 -8 4 -11 26 -9 56 l3 49 68 0 c66 -1 68 0 65
24 -3 24 -6 25 -70 23 l-68 -1 0 39 0 40 70 0 c68 0 70 1 70 25 0 25 0 25 -94
25 l-94 0 0 -165z"/>
</g>
</svg>
